<?xml version="1.0" encoding="UTF-8"?>
<svg xmlns="http://www.w3.org/2000/svg" id="Layer_1" data-name="Layer 1" viewBox="0 0 57 42.5">
    <defs>
        <style>.cls-1{fill:#fff;}</style>
    </defs>
    <title>CE Negative Logo</title>
    <path class="cls-1" d="M27.75,11.4l-1.1-3.87c-.91-.22-1.84-.4-2.79-.56l1.31,4.58Q26.4,11.45,27.75,11.4Z" transform="translate(-2.5 -6.28)" />
    <path class="cls-1" d="M24.5,11.61,22.06,6.7c-1-.12-2-.22-3-.29L21.86,12C22.69,11.82,23.58,11.7,24.5,11.61Z" transform="translate(-2.5 -6.28)" />
    <path class="cls-1" d="M17.1,13.15l-5.58-5.1q-.19,1.6-.3,3.15l3.23,3A27.69,27.69,0,0,1,17.1,13.15Z" transform="translate(-2.5 -6.28)" />
    <path class="cls-1" d="M21,12.14,16.56,6.3c-1,0-2.08,0-3.15,0l4.88,6.47C19.12,12.54,20,12.33,21,12.14Z" transform="translate(-2.5 -6.28)" />
    <path class="cls-1" d="M12.94,14.87,11.1,13.73c0,.74,0,1.47,0,2.19A18.21,18.21,0,0,1,12.94,14.87Z" transform="translate(-2.5 -6.28)" />
    <path class="cls-1" d="M37.56,43.5,40,48.41c1,.12,2,.22,3,.29L40.2,43.14C39.37,43.29,38.48,43.4,37.56,43.5Z" transform="translate(-2.5 -6.28)" />
    <path class="cls-1" d="M45,42l5.59,5.09c.13-1.06.23-2.11.3-3.14L47.61,41A26.7,26.7,0,0,1,45,42Z" transform="translate(-2.5 -6.28)" />
    <path class="cls-1" d="M49.13,40.24,51,41.38c0-.75,0-1.47,0-2.19C50.53,39.46,49.91,39.83,49.13,40.24Z" transform="translate(-2.5 -6.28)" />
    <path class="cls-1" d="M41.09,43l4.41,5.84c1,0,2.09,0,3.16,0l-4.89-6.47C43,42.56,42,42.77,41.09,43Z" transform="translate(-2.5 -6.28)" />
    <path class="cls-1" d="M28.88,11.29c.62,0,1.22,0,1.83,0l-.24-2.59c-.78-.28-1.6-.53-2.43-.76l.31,3.31Z" transform="translate(-2.5 -6.28)" />
    <path class="cls-1" d="M31.36,43.78l.24,2.59c.78.28,1.6.53,2.42.76l-.31-3.31C33.26,43.83,32,43.8,31.36,43.78Z" transform="translate(-2.5 -6.28)" />
    <path class="cls-1" d="M58.57,28.73c.33-.38.66-.77,1-1.18-.32-.4-.65-.79-1-1.16H44.66l0-.18L56.44,24c-.67-.69-1.34-1.37-2-2L44.21,23.91l-.05-.18,8.53-3.3c-.63-.54-1.27-1.07-1.91-1.56l-.18-.14-7.28,2.82-.09-.17,7.64-4.72c0-.91,0-1.84,0-2.77L42,19.39l-.11-.14,8.87-8.09c-.07-1-.16-1.94-.28-2.91L40.31,17.51l-.13-.12,8.3-11c-1,0-2,0-2.93,0L38.31,16l-.15-.09,4.66-9.38c-.93.07-1.86.16-2.75.28l-4,8.05-.17-.07,2.19-7.69c-.88.15-1.75.33-2.59.53l-1.85,6.52-.18,0L34,8c-.82.23-1.63.48-2.42.75l-.47,5.15h-.19l-.21-2.37c-.78,0-1.57.05-2.35.13l.23,2.46-.18,0-.69-2.42c-.77.09-1.55.22-2.33.38l.77,2.68-.17.07-1.29-2.6c-.77.18-1.55.39-2.31.63l1.5,3-.15.1-2.15-2.84c-.75.26-1.51.56-2.26.88l2.54,3.37-.14.12L18.4,14.45c-.74.35-1.49.74-2.22,1.15l4,3.64-.11.15-5-3.12c-.72.44-1.45.92-2.16,1.42l5.95,3.69-.08.16-7.28-2.82-.18.14c-.64.49-1.28,1-1.91,1.56l8.52,3.31,0,.17L7.64,22c-.68.65-1.36,1.32-2,2l11.79,2.2v.18H3.48c-.34.39-.67.79-1,1.17l1,1.18H17.41v.18L5.65,31.11c.65.68,1.33,1.36,2,2l10.19-1.91,0,.17-8.5,3.3c.6.52,1.23,1,1.87,1.53l.22.17,7.26-2.81.08.16-7.65,4.74c0,.91,0,1.84,0,2.77l8.9-5.51.11.14L11.29,44c.07,1,.16,1.93.28,2.91L21.75,37.6l.13.13-8.29,11c1,0,2,0,2.93,0l7.23-9.57.16.09-4.66,9.35c.93-.07,1.86-.16,2.76-.27l4-8,.17.06L24,48c.87-.15,1.74-.33,2.58-.53L28.43,41l.18,0L28,47.13c.82-.23,1.64-.48,2.42-.76l.48-5.13h.18l.22,2.36h.15q1.14,0,2.19-.12L33.45,41l.18,0,.69,2.42c.78-.09,1.56-.22,2.33-.38l-.76-2.69.16-.06,1.3,2.6c.76-.18,1.53-.39,2.3-.63l-1.5-3,.16-.09L40.45,42c.75-.26,1.51-.56,2.26-.89l-2.53-3.36.13-.12,3.35,3c.74-.35,1.48-.74,2.22-1.15l-4-3.64.11-.14,5,3.11c.72-.45,1.45-.92,2.16-1.42l-6-3.68.08-.16,7.27,2.81.21-.16c.63-.49,1.27-1,1.88-1.54l-8.51-3.3.05-.17,10.2,1.9c.67-.63,1.34-1.31,2-2L44.64,28.91l0-.18ZM31,34.64a7.08,7.08,0,1,1,7.07-7.07A7.08,7.08,0,0,1,31,34.64Z" transform="translate(-2.5 -6.28)" />
    <path class="cls-1" d="M34.34,43.78l1.08,3.8c.9.21,1.83.4,2.78.56l-1.3-4.58S35.34,43.72,34.34,43.78Z" transform="translate(-2.5 -6.28)" />
</svg>
