<svg width="20" height="24" viewBox="0 0 20 24" fill="none" xmlns="http://www.w3.org/2000/svg">
    <path d="M19.0068 8.22168C19.0102 7.52792 18.8205 6.84689 18.4589 6.25485C18.0972 5.66281 17.5778 5.18315 16.959 4.86957C16.3401 4.556 15.6461 4.42091 14.9549 4.47941C14.2635 4.53793 13.6023 4.78773 13.0448 5.20085C12.4875 5.61397 12.0561 6.17409 11.7991 6.8185C11.5421 7.4629 11.4695 8.16613 11.5896 8.84944C11.7096 9.53274 12.0175 10.1692 12.4787 10.6874C12.94 11.2056 13.5365 11.5852 14.2012 11.7836C13.9558 12.2824 13.5761 12.703 13.1047 12.9979C12.6334 13.2929 12.0892 13.4505 11.5332 13.4532H8.54374C7.43705 13.4571 6.37141 13.8727 5.5543 14.6191V7.39809C6.46162 7.21288 7.26787 6.69737 7.81671 5.95151C8.36557 5.20565 8.61787 4.28256 8.5248 3.36121C8.43173 2.43987 7.99988 1.5859 7.31295 0.964873C6.62602 0.343845 5.73298 0 4.80694 0C3.8809 0 2.98786 0.343845 2.30093 0.964873C1.61401 1.5859 1.18214 2.43987 1.08907 3.36121C0.99599 4.28256 1.24834 5.20565 1.79718 5.95151C2.34602 6.69737 3.15226 7.21288 4.05958 7.39809V16.5159C3.15396 16.6891 2.34302 17.1877 1.77972 17.9176C1.21642 18.6476 0.939709 19.5585 1.00176 20.4785C1.06382 21.3984 1.46036 22.2639 2.11659 22.9115C2.77282 23.5592 3.64338 23.9444 4.56406 23.9944C5.48475 24.0445 6.3919 23.7558 7.11443 23.183C7.83696 22.6102 8.32491 21.7928 8.48624 20.885C8.64757 19.9771 8.47119 19.0417 7.99026 18.255C7.50935 17.4683 6.7572 16.8848 5.87567 16.6145C6.12155 16.1162 6.50145 15.6963 6.97275 15.4019C7.44404 15.1074 7.98806 14.9503 8.54374 14.9479H11.5332C12.4659 14.9436 13.374 14.6486 14.1311 14.1039C14.8882 13.5592 15.4566 12.792 15.7572 11.9091C16.6532 11.7914 17.4761 11.3528 18.0736 10.6748C18.671 9.9968 19.0026 9.12533 19.0068 8.22168ZM2.56487 3.73752C2.56487 3.29408 2.69636 2.8606 2.94272 2.4919C3.18909 2.12319 3.53925 1.83581 3.94893 1.66611C4.35863 1.49642 4.80943 1.45202 5.24435 1.53854C5.67927 1.62504 6.07877 1.83857 6.39233 2.15214C6.70589 2.4657 6.91943 2.8652 7.00594 3.30012C7.09245 3.73504 7.04805 4.18585 6.87835 4.59553C6.70865 5.00521 6.42128 5.35539 6.05257 5.60175C5.68386 5.84811 5.25038 5.9796 4.80694 5.9796C4.2123 5.9796 3.64203 5.74339 3.22155 5.32291C2.80108 4.90245 2.56487 4.33216 2.56487 3.73752ZM7.04902 20.1794C7.04902 20.6229 6.91752 21.0563 6.67116 21.425C6.42479 21.7937 6.07463 22.0811 5.66495 22.2508C5.25526 22.4205 4.80445 22.4649 4.36954 22.3784C3.93461 22.292 3.53512 22.0784 3.22155 21.7648C2.90799 21.4512 2.69446 21.0517 2.60794 20.6169C2.52144 20.1819 2.56583 19.7311 2.73553 19.3214C2.90523 18.9117 3.19261 18.5615 3.56131 18.3152C3.93002 18.0689 4.3635 17.9373 4.80694 17.9373C5.40158 17.9373 5.97186 18.1736 6.39233 18.594C6.8128 19.0145 7.04902 19.5848 7.04902 20.1794ZM15.27 10.4638C14.8265 10.4638 14.3931 10.3322 14.0244 10.0859C13.6557 9.83954 13.3683 9.48937 13.1986 9.07969C13.0289 8.67 12.9844 8.2192 13.0709 7.78427C13.1574 7.34935 13.371 6.94985 13.6846 6.63629C13.9982 6.32273 14.3976 6.10919 14.8325 6.02268C15.2675 5.93617 15.7183 5.98058 16.1279 6.15027C16.5377 6.31997 16.8878 6.60734 17.1342 6.97605C17.3805 7.34476 17.512 7.77823 17.512 8.22168C17.512 8.81632 17.2758 9.3866 16.8554 9.80706C16.4348 10.2275 15.8646 10.4638 15.27 10.4638Z" fill="#C5C5C5"/>
</svg>
